<svg width="261" height="108" viewBox="0 0 261 108" fill="none" xmlns="http://www.w3.org/2000/svg">
<path d="M1.004 27.0779L1.05656 27.1624L18.3784 105.038L18.487 105.526L18.7979 105.46L18.8125 105.604L19.3138 105.556C46.4834 102.955 60.9703 99.9443 85.3176 91.652L85.7932 91.4901L85.7526 91.3774L86.0559 91.3136L85.9473 90.8256L68.5833 12.7609L68.4748 12.2728L67.9855 12.3757L67.951 12.383L67.819 12.3687C54.0904 10.8772 43.5172 10.7843 33.3165 12.8751C23.1142 14.9663 13.3333 19.2319 1.1709 26.3885L0.734695 26.6451L1.004 27.0779ZM19.594 104.156L2.47967 27.214C14.2939 20.3106 23.7748 16.2277 33.6067 14.2124C43.5318 12.1781 53.8627 12.2407 67.3792 13.6938L84.4623 90.4954C60.5901 98.6051 46.2445 101.588 19.594 104.156Z" fill="black" stroke="black" stroke-linecap="square"/>
<path d="M59.3865 21.2854C59.793 23.1128 58.6702 24.8792 56.908 25.2499C55.1458 25.6205 53.3727 24.4632 52.9662 22.6358C52.5597 20.8084 53.6825 19.042 55.4447 18.6714C57.207 18.3007 58.9801 19.458 59.3865 21.2854Z" fill="black" stroke="black"/>
<rect x="0.597856" y="0.385157" width="6.93886" height="1.94829" transform="matrix(0.978588 -0.205829 0.217125 0.976144 8.84226 30.716)" fill="black" stroke="black"/>
<rect x="0.597856" y="0.385157" width="6.93886" height="1.94829" transform="matrix(0.978588 -0.205829 0.217125 0.976144 21.4204 28.07)" fill="black" stroke="black"/>
<path fill-rule="evenodd" clip-rule="evenodd" d="M38.4381 76.3373L30.6844 77.9449L31.3398 80.8493L39.0934 79.2417L38.4381 76.3373ZM57.0409 78.0501L64.7945 76.4425L65.4499 79.3469L57.6963 80.9545L57.0409 78.0501ZM39.6384 81.734L31.8848 83.3416L32.5401 86.246L40.2938 84.6384L39.6384 81.734ZM52.2167 79.0887L44.463 80.6963L45.1184 83.6007L52.8721 81.9931L52.2167 79.0887ZM40.8388 87.1299L33.0851 88.7375L33.7405 91.6419L41.4941 90.0343L40.8388 87.1299ZM45.6634 86.0922L53.417 84.4845L54.0724 87.3889L46.3188 88.9966L45.6634 86.0922ZM65.9949 81.8392L58.2412 83.4468L58.8966 86.3512L66.6503 84.7436L65.9949 81.8392ZM33.9954 94.5713L41.749 92.9637L42.4044 95.8681L34.6507 97.4757L33.9954 94.5713ZM54.3273 90.3184L46.5736 91.926L47.229 94.8304L54.9827 93.2228L54.3273 90.3184ZM59.1519 89.2798L66.9056 87.6722L67.5609 90.5766L59.8073 92.1842L59.1519 89.2798ZM43.2627 75.2996L51.0163 73.692L51.6717 76.5964L43.9181 78.204L43.2627 75.2996ZM63.5946 71.0466L55.841 72.6542L56.4963 75.5586L64.25 73.951L63.5946 71.0466Z" fill="black"/>
<mask id="path-6-inside-1" fill="white">
<path fill-rule="evenodd" clip-rule="evenodd" d="M45.9719 33.6943C45.4214 32.135 41.9035 31.5284 37.9477 32.3434C33.9792 33.1611 31.0329 35.1082 31.2285 36.7481L45.9719 33.6943ZM51.6806 45.5366C52.9667 51.2245 49.3103 56.8077 43.5139 58.007C37.7175 59.2063 31.976 55.5677 30.6899 49.8798C29.4038 44.192 33.0602 38.6088 38.8566 37.4095C44.653 36.2101 50.3945 39.8488 51.6806 45.5366ZM27.1095 44.4229C25.4822 44.8377 24.8859 48.3132 25.7802 52.2531C26.6716 56.1796 28.7112 59.1031 30.37 58.8624L27.1095 44.4229ZM57.1506 45.681C58.0449 49.6208 57.4486 53.0963 55.8213 53.5111L52.5608 39.0716C54.2196 38.8309 56.2592 41.7544 57.1506 45.681ZM44.7933 62.9948C40.8374 63.8099 37.3195 63.2031 36.7691 61.6438L51.5125 58.59C51.7082 60.2299 48.7619 62.1771 44.7933 62.9948Z"/>
</mask>
<path fill-rule="evenodd" clip-rule="evenodd" d="M45.9719 33.6943C45.4214 32.135 41.9035 31.5284 37.9477 32.3434C33.9792 33.1611 31.0329 35.1082 31.2285 36.7481L45.9719 33.6943ZM51.6806 45.5366C52.9667 51.2245 49.3103 56.8077 43.5139 58.007C37.7175 59.2063 31.976 55.5677 30.6899 49.8798C29.4038 44.192 33.0602 38.6088 38.8566 37.4095C44.653 36.2101 50.3945 39.8488 51.6806 45.5366ZM27.1095 44.4229C25.4822 44.8377 24.8859 48.3132 25.7802 52.2531C26.6716 56.1796 28.7112 59.1031 30.37 58.8624L27.1095 44.4229ZM57.1506 45.681C58.0449 49.6208 57.4486 53.0963 55.8213 53.5111L52.5608 39.0716C54.2196 38.8309 56.2592 41.7544 57.1506 45.681ZM44.7933 62.9948C40.8374 63.8099 37.3195 63.2031 36.7691 61.6438L51.5125 58.59C51.7082 60.2299 48.7619 62.1771 44.7933 62.9948Z" fill="black"/>
<path d="M37.9477 32.3434L38.1608 33.3204L37.9477 32.3434ZM45.9719 33.6943L46.186 34.6711L47.2947 34.4414L46.9172 33.3724L45.9719 33.6943ZM31.2285 36.7481L30.2332 36.8554L30.3636 37.9484L31.4427 37.7249L31.2285 36.7481ZM43.5139 58.007L43.7278 58.9838L43.5139 58.007ZM51.6806 45.5366L52.6584 45.3274L52.6584 45.3274L51.6806 45.5366ZM30.6899 49.8798L29.7121 50.0891L30.6899 49.8798ZM38.8566 37.4095L39.0705 38.3863L38.8566 37.4095ZM25.7802 52.2531L24.8026 52.4631L25.7802 52.2531ZM27.1095 44.4229L28.0874 44.214L27.8584 43.1996L26.8513 43.4563L27.1095 44.4229ZM30.37 58.8624L30.5248 59.8496L31.5833 59.696L31.3479 58.6534L30.37 58.8624ZM55.8213 53.5111L54.8434 53.7201L55.0724 54.7344L56.0795 54.4777L55.8213 53.5111ZM57.1506 45.681L56.1729 45.891L57.1506 45.681ZM52.5608 39.0716L52.406 38.0844L51.3476 38.238L51.583 39.2806L52.5608 39.0716ZM36.7691 61.6438L36.555 60.667L35.4464 60.8967L35.8237 61.9656L36.7691 61.6438ZM44.7933 62.9948L44.5802 62.0178L44.7933 62.9948ZM51.5125 58.59L52.5078 58.4826L52.3774 57.3898L51.2984 57.6133L51.5125 58.59ZM38.1608 33.3204C40.0448 32.9322 41.7847 32.8924 43.0785 33.1119C43.7271 33.2219 44.2208 33.3898 44.5565 33.5784C44.8951 33.7685 44.9977 33.9343 45.0266 34.0162L46.9172 33.3724C46.6709 32.6747 46.1273 32.1799 45.5278 31.8432C44.9255 31.5049 44.1893 31.2798 43.3951 31.1451C41.8034 30.8752 39.8064 30.9396 37.7346 31.3664L38.1608 33.3204ZM32.2239 36.6407C32.2143 36.5601 32.231 36.3763 32.4511 36.0747C32.6703 35.7742 33.043 35.4278 33.585 35.0717C34.6659 34.3614 36.2704 33.7099 38.1608 33.3204L37.7346 31.3664C35.6565 31.7946 33.8036 32.5255 32.4681 33.4032C31.8019 33.841 31.2268 34.34 30.8245 34.8914C30.4232 35.4415 30.145 36.1161 30.2332 36.8554L32.2239 36.6407ZM45.7578 32.7175L31.0144 35.7713L31.4427 37.7249L46.186 34.6711L45.7578 32.7175ZM43.7278 58.9838C50.0537 57.6749 54.07 51.5704 52.6584 45.3274L50.7028 45.7459C51.8633 50.8786 48.567 55.9404 43.3 57.0302L43.7278 58.9838ZM29.7121 50.0891C31.1225 56.3266 37.4069 60.2917 43.7278 58.9838L43.3 57.0302C38.0281 58.121 32.8295 54.8088 31.6677 49.6706L29.7121 50.0891ZM38.6427 36.4326C32.3168 37.7415 28.3005 43.8461 29.7121 50.0891L31.6677 49.6706C30.5072 44.5378 33.8036 39.4761 39.0705 38.3863L38.6427 36.4326ZM52.6584 45.3274C51.2481 39.0899 44.9637 35.1248 38.6427 36.4326L39.0705 38.3863C44.3424 37.2955 49.541 40.6077 50.7028 45.7459L52.6584 45.3274ZM26.7579 52.043C26.3325 50.1691 26.2735 48.4498 26.4876 47.1929C26.595 46.5624 26.763 46.0958 26.9488 45.79C27.1332 45.4865 27.2896 45.4094 27.3678 45.3895L26.8513 43.4563C26.1159 43.6438 25.5874 44.1568 25.2303 44.7446C24.8745 45.3303 24.6442 46.0566 24.5109 46.8393C24.2436 48.4088 24.3336 50.3972 24.8026 52.4631L26.7579 52.043ZM30.2151 57.8752C30.1312 57.8874 29.9478 57.8747 29.6424 57.6647C29.3367 57.4544 28.9801 57.0914 28.6096 56.5586C27.8707 55.496 27.1817 53.9102 26.7579 52.043L24.8026 52.4631C25.2701 54.5225 26.0466 56.3617 26.965 57.6823C27.4232 58.3411 27.9432 58.9093 28.5143 59.3021C29.0858 59.6953 29.7794 59.9578 30.5248 59.8496L30.2151 57.8752ZM26.1317 44.6319L29.3921 59.0714L31.3479 58.6534L28.0874 44.214L26.1317 44.6319ZM56.0795 54.4777C56.8149 54.2902 57.3434 53.7772 57.7005 53.1894C58.0563 52.6037 58.2866 51.8774 58.4199 51.0947C58.6872 49.5252 58.5972 47.5368 58.1282 45.4709L56.1729 45.891C56.5983 47.7649 56.6573 49.4842 56.4432 50.7411C56.3358 51.3716 56.1678 51.8382 55.982 52.144C55.7976 52.4476 55.6413 52.5246 55.563 52.5445L56.0795 54.4777ZM51.583 39.2806L54.8434 53.7201L56.7992 53.3021L53.5387 38.8627L51.583 39.2806ZM58.1282 45.4709C57.6607 43.4115 56.8842 41.5723 55.9658 40.2517C55.5077 39.5929 54.9876 39.0247 54.4165 38.6319C53.845 38.2388 53.1515 37.9762 52.406 38.0844L52.7157 40.0588C52.7996 40.0466 52.983 40.0593 53.2884 40.2693C53.5941 40.4796 53.9507 40.8426 54.3212 41.3754C55.0601 42.438 55.7491 44.0238 56.1729 45.891L58.1282 45.4709ZM35.8237 61.9656C36.07 62.6634 36.6137 63.1582 37.2131 63.4949C37.8154 63.8332 38.5517 64.0584 39.3459 64.1931C40.9376 64.463 42.9346 64.3986 45.0064 63.9717L44.5802 62.0178C42.6961 62.406 40.9562 62.4458 39.6624 62.2263C39.0139 62.1163 38.5202 61.9484 38.1844 61.7598C37.8459 61.5696 37.7433 61.4039 37.7144 61.322L35.8237 61.9656ZM51.2984 57.6133L36.555 60.667L36.9832 62.6206L51.7266 59.5668L51.2984 57.6133ZM45.0064 63.9717C47.0845 63.5436 48.9375 62.8126 50.273 61.935C50.9392 61.4972 51.5143 60.9982 51.9166 60.4467C52.3179 59.8966 52.5961 59.222 52.5078 58.4826L50.5171 58.6974C50.5267 58.778 50.51 58.9618 50.29 59.2635C50.0708 59.564 49.698 59.9103 49.1561 60.2665C48.0752 60.9768 46.4707 61.6283 44.5802 62.0178L45.0064 63.9717Z" fill="black" mask="url(#path-6-inside-1)"/>
<path fill-rule="evenodd" clip-rule="evenodd" d="M44.2561 5.67118C47.0624 4.08582 49.3106 3.16699 51.6706 2.69395C54.0347 2.22009 56.5409 2.1874 59.8765 2.41321L59.9316 1.41849C56.5615 1.19034 53.9522 1.21694 51.4599 1.71649C48.9636 2.21687 46.6146 3.18557 43.7519 4.80276L44.2561 5.67118ZM52.2523 5.32126C50.3291 5.6993 48.4881 6.37015 46.1935 7.53125L45.7295 6.64143C48.0815 5.45127 50.01 4.74314 52.0457 4.34299C54.0759 3.94391 56.1908 3.8557 58.903 3.88175L58.9061 4.87881C56.2143 4.85296 54.181 4.94215 52.2523 5.32126ZM53.0441 7.41631C52.069 7.60217 51.0513 8.07418 49.6783 8.99924L49.1075 8.17167C50.5314 7.21238 51.6781 6.65904 52.842 6.43719C54.0088 6.21478 55.1434 6.33521 56.5178 6.63411L56.3163 7.60781C54.9953 7.32051 54.0162 7.23101 53.0441 7.41631Z" fill="black"/>
<path d="M115.73 64.0438C115.97 64.4038 116.09 64.7438 116.09 65.0638C116.09 65.4905 115.91 65.8505 115.55 66.1438C115.203 66.4238 114.797 66.5638 114.33 66.5638C114.01 66.5638 113.71 66.4905 113.43 66.3438C113.15 66.1971 112.91 65.9771 112.71 65.6838L110.11 61.8838C109.923 61.6171 109.723 61.4238 109.51 61.3038C109.31 61.1705 109.07 61.1038 108.79 61.1038H107.49V64.6838C107.49 65.2438 107.33 65.6905 107.01 66.0238C106.69 66.3438 106.25 66.5038 105.69 66.5038C105.13 66.5038 104.683 66.3438 104.35 66.0238C104.03 65.6905 103.87 65.2438 103.87 64.6838V53.9838C103.87 53.4371 104.017 53.0171 104.31 52.7238C104.603 52.4305 105.023 52.2838 105.57 52.2838H110.59C112.297 52.2838 113.577 52.6571 114.43 53.4038C115.297 54.1371 115.73 55.2038 115.73 56.6038C115.73 57.6705 115.437 58.5771 114.85 59.3238C114.263 60.0571 113.437 60.5505 112.37 60.8038C112.81 60.8705 113.19 61.0171 113.51 61.2438C113.843 61.4705 114.17 61.8105 114.49 62.2638L115.73 64.0438ZM110.01 58.3438C110.823 58.3438 111.403 58.2171 111.75 57.9638C112.11 57.7105 112.29 57.2971 112.29 56.7238C112.29 56.1371 112.11 55.7171 111.75 55.4638C111.403 55.1971 110.823 55.0638 110.01 55.0638H107.45V58.3438H110.01ZM119.71 66.3838C119.164 66.3838 118.744 66.2371 118.45 65.9438C118.157 65.6505 118.01 65.2305 118.01 64.6838V53.9838C118.01 53.4371 118.157 53.0171 118.45 52.7238C118.744 52.4305 119.164 52.2838 119.71 52.2838H126.63C127.204 52.2838 127.637 52.4038 127.93 52.6438C128.224 52.8838 128.37 53.2305 128.37 53.6838C128.37 54.6438 127.79 55.1238 126.63 55.1238H121.59V57.8038H126.23C127.39 57.8038 127.97 58.2771 127.97 59.2238C127.97 59.6771 127.824 60.0238 127.53 60.2638C127.237 60.5038 126.804 60.6238 126.23 60.6238H121.59V63.5438H126.63C127.79 63.5438 128.37 64.0238 128.37 64.9838C128.37 65.4371 128.224 65.7838 127.93 66.0238C127.637 66.2638 127.204 66.3838 126.63 66.3838H119.71ZM142.464 52.1838C142.971 52.1838 143.384 52.3505 143.704 52.6838C144.024 53.0171 144.184 53.4505 144.184 53.9838V64.8638C144.184 65.3705 144.037 65.7705 143.744 66.0638C143.451 66.3571 143.064 66.5038 142.584 66.5038C142.117 66.5038 141.731 66.3571 141.424 66.0638C141.131 65.7705 140.984 65.3705 140.984 64.8638V58.9838L138.704 63.1838C138.477 63.6105 138.237 63.9171 137.984 64.1038C137.731 64.2771 137.431 64.3638 137.084 64.3638C136.737 64.3638 136.437 64.2771 136.184 64.1038C135.931 63.9171 135.691 63.6105 135.464 63.1838L133.204 59.1038V64.8638C133.204 65.3571 133.051 65.7571 132.744 66.0638C132.451 66.3571 132.064 66.5038 131.584 66.5038C131.117 66.5038 130.731 66.3571 130.424 66.0638C130.131 65.7705 129.984 65.3705 129.984 64.8638V53.9838C129.984 53.4505 130.144 53.0171 130.464 52.6838C130.797 52.3505 131.217 52.1838 131.724 52.1838C132.084 52.1838 132.411 52.2905 132.704 52.5038C132.997 52.7038 133.244 52.9971 133.444 53.3838L137.124 60.3038L140.784 53.3838C141.197 52.5838 141.757 52.1838 142.464 52.1838ZM153.48 66.5638C152.04 66.5638 150.787 66.2705 149.72 65.6838C148.667 65.0838 147.853 64.2438 147.28 63.1638C146.707 62.0705 146.42 60.7905 146.42 59.3238C146.42 57.8571 146.707 56.5838 147.28 55.5038C147.853 54.4105 148.667 53.5705 149.72 52.9838C150.787 52.3971 152.04 52.1038 153.48 52.1038C154.92 52.1038 156.167 52.3971 157.22 52.9838C158.287 53.5705 159.1 54.4105 159.66 55.5038C160.233 56.5838 160.52 57.8571 160.52 59.3238C160.52 60.7905 160.233 62.0705 159.66 63.1638C159.087 64.2438 158.267 65.0838 157.2 65.6838C156.147 66.2705 154.907 66.5638 153.48 66.5638ZM153.48 63.7438C154.547 63.7438 155.38 63.3705 155.98 62.6238C156.58 61.8638 156.88 60.7638 156.88 59.3238C156.88 57.8838 156.573 56.7905 155.96 56.0438C155.36 55.2971 154.533 54.9238 153.48 54.9238C152.413 54.9238 151.58 55.2971 150.98 56.0438C150.38 56.7771 150.08 57.8705 150.08 59.3238C150.08 60.7771 150.38 61.8771 150.98 62.6238C151.58 63.3705 152.413 63.7438 153.48 63.7438ZM166.957 66.4838C166.397 66.4838 165.943 66.3238 165.597 66.0038C165.263 65.6705 165.097 65.2305 165.097 64.6838V55.2638H162.277C161.69 55.2638 161.25 55.1438 160.957 54.9038C160.677 54.6505 160.537 54.2705 160.537 53.7638C160.537 53.2571 160.677 52.8838 160.957 52.6438C161.25 52.4038 161.69 52.2838 162.277 52.2838H171.637C172.223 52.2838 172.657 52.4038 172.937 52.6438C173.23 52.8838 173.377 53.2571 173.377 53.7638C173.377 54.2705 173.23 54.6505 172.937 54.9038C172.657 55.1438 172.223 55.2638 171.637 55.2638H168.817V64.6838C168.817 65.2305 168.643 65.6705 168.297 66.0038C167.963 66.3238 167.517 66.4838 166.957 66.4838ZM180.472 66.5638C179.032 66.5638 177.779 66.2705 176.712 65.6838C175.659 65.0838 174.846 64.2438 174.272 63.1638C173.699 62.0705 173.412 60.7905 173.412 59.3238C173.412 57.8571 173.699 56.5838 174.272 55.5038C174.846 54.4105 175.659 53.5705 176.712 52.9838C177.779 52.3971 179.032 52.1038 180.472 52.1038C181.912 52.1038 183.159 52.3971 184.212 52.9838C185.279 53.5705 186.092 54.4105 186.652 55.5038C187.226 56.5838 187.512 57.8571 187.512 59.3238C187.512 60.7905 187.226 62.0705 186.652 63.1638C186.079 64.2438 185.259 65.0838 184.192 65.6838C183.139 66.2705 181.899 66.5638 180.472 66.5638ZM180.472 63.7438C181.539 63.7438 182.372 63.3705 182.972 62.6238C183.572 61.8638 183.872 60.7638 183.872 59.3238C183.872 57.8838 183.566 56.7905 182.952 56.0438C182.352 55.2971 181.526 54.9238 180.472 54.9238C179.406 54.9238 178.572 55.2971 177.972 56.0438C177.372 56.7771 177.072 57.8705 177.072 59.3238C177.072 60.7771 177.372 61.8771 177.972 62.6238C178.572 63.3705 179.406 63.7438 180.472 63.7438Z" fill="black"/>
</svg>
